<mxfile host="app.diagrams.net" modified="2020-11-10T07:18:11.694Z" agent="5.0 (Windows NT 10.0; Win64; x64) AppleWebKit/537.36 (KHTML, like Gecko) Chrome/86.0.4240.183 Safari/537.36 Edg/86.0.622.63" etag="L6RC5GktHsmpRBY6UgRM" version="13.9.2" type="github">
  <diagram name="Page-1" id="13e1069c-82ec-6db2-03f1-153e76fe0fe0">
    <mxGraphModel dx="1422" dy="804" grid="0" gridSize="10" guides="1" tooltips="1" connect="1" arrows="1" fold="1" page="0" pageScale="1" pageWidth="1100" pageHeight="850" background="none" math="0" shadow="0">
      <root>
        <mxCell id="0" />
        <mxCell id="1" parent="0" />
        <mxCell id="7baba1c4bc27f4b0-2" value="EmpRequest" style="shape=umlLifeline;perimeter=lifelinePerimeter;whiteSpace=wrap;html=1;container=1;collapsible=0;recursiveResize=0;outlineConnect=0;rounded=1;shadow=0;comic=0;labelBackgroundColor=none;strokeWidth=1;fontFamily=Verdana;fontSize=12;align=center;" parent="1" vertex="1">
          <mxGeometry x="240" y="80" width="100" height="600" as="geometry" />
        </mxCell>
        <mxCell id="7baba1c4bc27f4b0-10" value="" style="html=1;points=[];perimeter=orthogonalPerimeter;rounded=0;shadow=0;comic=0;labelBackgroundColor=none;strokeWidth=1;fontFamily=Verdana;fontSize=12;align=center;" parent="7baba1c4bc27f4b0-2" vertex="1">
          <mxGeometry x="45" y="100" width="10" height="157" as="geometry" />
        </mxCell>
        <mxCell id="bu4CAsnIlMeV9zalwp6w-1" value="" style="html=1;points=[];perimeter=orthogonalPerimeter;rounded=0;shadow=0;comic=0;labelBackgroundColor=none;strokeWidth=1;fontFamily=Verdana;fontSize=12;align=center;" vertex="1" parent="7baba1c4bc27f4b0-2">
          <mxGeometry x="51" y="137" width="10" height="70" as="geometry" />
        </mxCell>
        <mxCell id="bu4CAsnIlMeV9zalwp6w-3" value="" style="html=1;points=[];perimeter=orthogonalPerimeter;rounded=0;shadow=0;comic=0;labelBackgroundColor=none;strokeWidth=1;fontFamily=Verdana;fontSize=12;align=center;" vertex="1" parent="7baba1c4bc27f4b0-2">
          <mxGeometry x="45" y="407" width="10" height="134" as="geometry" />
        </mxCell>
        <mxCell id="7baba1c4bc27f4b0-3" value="BaseData" style="shape=umlLifeline;perimeter=lifelinePerimeter;whiteSpace=wrap;html=1;container=1;collapsible=0;recursiveResize=0;outlineConnect=0;rounded=1;shadow=0;comic=0;labelBackgroundColor=none;strokeWidth=1;fontFamily=Verdana;fontSize=12;align=center;" parent="1" vertex="1">
          <mxGeometry x="400" y="80" width="100" height="600" as="geometry" />
        </mxCell>
        <mxCell id="7baba1c4bc27f4b0-13" value="" style="html=1;points=[];perimeter=orthogonalPerimeter;rounded=0;shadow=0;comic=0;labelBackgroundColor=none;strokeWidth=1;fontFamily=Verdana;fontSize=12;align=center;" parent="7baba1c4bc27f4b0-3" vertex="1">
          <mxGeometry x="45" y="203" width="10" height="301" as="geometry" />
        </mxCell>
        <mxCell id="7baba1c4bc27f4b0-4" value="test.xml包含的测试类" style="shape=umlLifeline;perimeter=lifelinePerimeter;whiteSpace=wrap;html=1;container=1;collapsible=0;recursiveResize=0;outlineConnect=0;rounded=1;shadow=0;comic=0;labelBackgroundColor=none;strokeWidth=1;fontFamily=Verdana;fontSize=12;align=center;" parent="1" vertex="1">
          <mxGeometry x="540" y="80" width="100" height="600" as="geometry" />
        </mxCell>
        <mxCell id="7baba1c4bc27f4b0-8" value="test.xml" style="shape=umlLifeline;perimeter=lifelinePerimeter;whiteSpace=wrap;html=1;container=1;collapsible=0;recursiveResize=0;outlineConnect=0;rounded=1;shadow=0;comic=0;labelBackgroundColor=none;strokeWidth=1;fontFamily=Verdana;fontSize=12;align=center;" parent="1" vertex="1">
          <mxGeometry x="100" y="80" width="100" height="601" as="geometry" />
        </mxCell>
        <mxCell id="7baba1c4bc27f4b0-9" value="" style="html=1;points=[];perimeter=orthogonalPerimeter;rounded=0;shadow=0;comic=0;labelBackgroundColor=none;strokeWidth=1;fontFamily=Verdana;fontSize=12;align=center;" parent="7baba1c4bc27f4b0-8" vertex="1">
          <mxGeometry x="45" y="100" width="10" height="483" as="geometry" />
        </mxCell>
        <mxCell id="7baba1c4bc27f4b0-22" value="" style="html=1;points=[];perimeter=orthogonalPerimeter;rounded=0;shadow=0;comic=0;labelBackgroundColor=none;strokeWidth=1;fontFamily=Verdana;fontSize=12;align=center;" parent="1" vertex="1">
          <mxGeometry x="585" y="440" width="10" height="221" as="geometry" />
        </mxCell>
        <mxCell id="7baba1c4bc27f4b0-23" value="调用test方法" style="html=1;verticalAlign=bottom;endArrow=block;entryX=0;entryY=0;labelBackgroundColor=none;fontFamily=Verdana;fontSize=12;" parent="1" source="7baba1c4bc27f4b0-9" target="7baba1c4bc27f4b0-22" edge="1">
          <mxGeometry relative="1" as="geometry">
            <mxPoint x="510" y="420" as="sourcePoint" />
          </mxGeometry>
        </mxCell>
        <mxCell id="7baba1c4bc27f4b0-11" value="调用BeforeSuite方法" style="html=1;verticalAlign=bottom;endArrow=block;entryX=0;entryY=0;labelBackgroundColor=none;fontFamily=Verdana;fontSize=12;edgeStyle=elbowEdgeStyle;elbow=vertical;" parent="1" source="7baba1c4bc27f4b0-9" target="7baba1c4bc27f4b0-10" edge="1">
          <mxGeometry relative="1" as="geometry">
            <mxPoint x="220" y="190" as="sourcePoint" />
          </mxGeometry>
        </mxCell>
        <mxCell id="7baba1c4bc27f4b0-14" value="将获得的验证信息&lt;br&gt;存入BaseData中" style="html=1;verticalAlign=bottom;endArrow=block;labelBackgroundColor=none;fontFamily=Verdana;fontSize=12;edgeStyle=elbowEdgeStyle;elbow=vertical;exitX=1;exitY=0.834;exitDx=0;exitDy=0;exitPerimeter=0;" parent="1" source="7baba1c4bc27f4b0-10" edge="1">
          <mxGeometry relative="1" as="geometry">
            <mxPoint x="298" y="312" as="sourcePoint" />
            <mxPoint x="443" y="311" as="targetPoint" />
          </mxGeometry>
        </mxCell>
        <mxCell id="7baba1c4bc27f4b0-37" value="" style="html=1;points=[];perimeter=orthogonalPerimeter;rounded=0;shadow=0;comic=0;labelBackgroundColor=none;strokeWidth=1;fontFamily=Verdana;fontSize=12;align=center;" parent="1" vertex="1">
          <mxGeometry x="590" y="472" width="10" height="40" as="geometry" />
        </mxCell>
        <mxCell id="7baba1c4bc27f4b0-39" value="获取入参json" style="html=1;verticalAlign=bottom;endArrow=block;labelBackgroundColor=none;fontFamily=Verdana;fontSize=12;elbow=vertical;edgeStyle=orthogonalEdgeStyle;curved=1;entryX=1;entryY=0.286;entryPerimeter=0;exitX=1.038;exitY=0.345;exitPerimeter=0;" parent="1" edge="1">
          <mxGeometry relative="1" as="geometry">
            <mxPoint x="595.3333333333335" y="453" as="sourcePoint" />
            <mxPoint x="600.3333333333335" y="491.33333333333337" as="targetPoint" />
            <Array as="points">
              <mxPoint x="650" y="453" />
              <mxPoint x="650" y="491" />
            </Array>
          </mxGeometry>
        </mxCell>
        <mxCell id="bu4CAsnIlMeV9zalwp6w-2" value="调用登陆url" style="html=1;verticalAlign=bottom;endArrow=block;labelBackgroundColor=none;fontFamily=Verdana;fontSize=12;elbow=vertical;edgeStyle=orthogonalEdgeStyle;curved=1;entryX=1;entryY=0.286;entryPerimeter=0;exitX=1.038;exitY=0.345;exitPerimeter=0;" edge="1" parent="1">
          <mxGeometry relative="1" as="geometry">
            <mxPoint x="297.0000000000001" y="195.99999999999991" as="sourcePoint" />
            <mxPoint x="301.62" y="233.92" as="targetPoint" />
            <Array as="points">
              <mxPoint x="351.62" y="195.9" />
              <mxPoint x="351.62" y="233.9" />
            </Array>
          </mxGeometry>
        </mxCell>
        <mxCell id="bu4CAsnIlMeV9zalwp6w-6" value="" style="endArrow=classic;html=1;" edge="1" parent="1">
          <mxGeometry width="50" height="50" relative="1" as="geometry">
            <mxPoint x="584" y="533" as="sourcePoint" />
            <mxPoint x="295" y="533" as="targetPoint" />
            <Array as="points">
              <mxPoint x="478" y="533" />
            </Array>
          </mxGeometry>
        </mxCell>
        <mxCell id="bu4CAsnIlMeV9zalwp6w-8" value="调用empGet方法" style="edgeLabel;html=1;align=center;verticalAlign=middle;resizable=0;points=[];" vertex="1" connectable="0" parent="bu4CAsnIlMeV9zalwp6w-6">
          <mxGeometry x="-0.2868" y="-2" relative="1" as="geometry">
            <mxPoint x="41.010000000000005" y="-12.33" as="offset" />
          </mxGeometry>
        </mxCell>
        <mxCell id="bu4CAsnIlMeV9zalwp6w-9" value="" style="endArrow=classic;html=1;exitX=-0.2;exitY=0.707;exitDx=0;exitDy=0;exitPerimeter=0;dashed=1;" edge="1" parent="1">
          <mxGeometry width="50" height="50" relative="1" as="geometry">
            <mxPoint x="445" y="568" as="sourcePoint" />
            <mxPoint x="297" y="568" as="targetPoint" />
          </mxGeometry>
        </mxCell>
        <mxCell id="bu4CAsnIlMeV9zalwp6w-10" value="返还验证信息" style="edgeLabel;html=1;align=center;verticalAlign=middle;resizable=0;points=[];" vertex="1" connectable="0" parent="bu4CAsnIlMeV9zalwp6w-9">
          <mxGeometry x="-0.2868" y="-2" relative="1" as="geometry">
            <mxPoint x="-17.999999999999993" y="-13" as="offset" />
          </mxGeometry>
        </mxCell>
        <mxCell id="bu4CAsnIlMeV9zalwp6w-13" value="" style="endArrow=classic;html=1;dashed=1;" edge="1" parent="1">
          <mxGeometry width="50" height="50" relative="1" as="geometry">
            <mxPoint x="296" y="611" as="sourcePoint" />
            <mxPoint x="584" y="611" as="targetPoint" />
            <Array as="points">
              <mxPoint x="488" y="611" />
            </Array>
          </mxGeometry>
        </mxCell>
        <mxCell id="bu4CAsnIlMeV9zalwp6w-14" value="返回调用结果" style="edgeLabel;html=1;align=center;verticalAlign=middle;resizable=0;points=[];" vertex="1" connectable="0" parent="bu4CAsnIlMeV9zalwp6w-13">
          <mxGeometry x="-0.5903" y="-1" relative="1" as="geometry">
            <mxPoint x="20" y="-14.03" as="offset" />
          </mxGeometry>
        </mxCell>
        <mxCell id="bu4CAsnIlMeV9zalwp6w-15" value="" style="endArrow=classic;html=1;dashed=1;entryX=1;entryY=0.979;entryDx=0;entryDy=0;entryPerimeter=0;" edge="1" parent="1" target="7baba1c4bc27f4b0-9">
          <mxGeometry width="50" height="50" relative="1" as="geometry">
            <mxPoint x="582" y="653" as="sourcePoint" />
            <mxPoint x="416" y="652" as="targetPoint" />
          </mxGeometry>
        </mxCell>
        <mxCell id="bu4CAsnIlMeV9zalwp6w-16" value="返回断言结果" style="edgeLabel;html=1;align=center;verticalAlign=middle;resizable=0;points=[];" vertex="1" connectable="0" parent="bu4CAsnIlMeV9zalwp6w-15">
          <mxGeometry x="-0.7658" y="2" relative="1" as="geometry">
            <mxPoint x="-14" y="-16.98" as="offset" />
          </mxGeometry>
        </mxCell>
      </root>
    </mxGraphModel>
  </diagram>
</mxfile>
